<?xml version="1.0" encoding="UTF-8" standalone="no"?>
<!DOCTYPE svg PUBLIC "-//W3C//DTD SVG 1.1//EN" "http://www.w3.org/Graphics/SVG/1.1/DTD/svg11.dtd">
<svg width="100%" height="100%" viewBox="0 0 872 780" version="1.1" xmlns="http://www.w3.org/2000/svg"
     xml:space="preserve" style="fill-rule:evenodd;clip-rule:evenodd;stroke-linejoin:round;stroke-miterlimit:2;">
    <g id="Name---Slogan">
        <g>
            <g transform="matrix(1,0,0,1,-182.153,-61.768)">
                <g transform="matrix(100,0,0,100,176.332,767.927)">
                    <path d="M0.137,0.007c-0.037,0 -0.055,-0.018 -0.055,-0.055l-0,-0.601c-0,-0.037 0.019,-0.056 0.056,-0.056l0.356,0c0.029,0 0.043,0.014 0.043,0.041c0,0.029 -0.014,0.043 -0.043,0.043l-0.308,0l-0,0.225l0.288,0c0.029,-0 0.043,0.014 0.043,0.041c-0,0.029 -0.014,0.043 -0.043,0.043l-0.288,0l-0,0.264c-0,0.037 -0.016,0.055 -0.049,0.055Z" style="fill:#333;fill-rule:nonzero;"/>
                </g>
                <g transform="matrix(100,0,0,100,231.732,767.927)">
                    <path d="M0.367,0.009c-0.094,0 -0.166,-0.025 -0.216,-0.075c-0.049,-0.049 -0.074,-0.122 -0.074,-0.218l0,-0.376c0,-0.035 0.017,-0.052 0.052,-0.052c0.035,0 0.052,0.017 0.052,0.052l0,0.374c-0,0.137 0.062,0.205 0.186,0.205c0.124,0 0.186,-0.068 0.186,-0.205l0,-0.374c0,-0.035 0.017,-0.052 0.051,-0.052c0.034,0 0.051,0.017 0.051,0.052l0,0.376c0,0.096 -0.024,0.169 -0.073,0.219c-0.049,0.049 -0.12,0.074 -0.215,0.074Z" style="fill:#333;fill-rule:nonzero;"/>
                </g>
                <g transform="matrix(100,0,0,100,305.032,767.927)">
                    <path d="M0.398,0.009c-0.071,0 -0.132,-0.015 -0.183,-0.044c-0.051,-0.029 -0.09,-0.071 -0.117,-0.126c-0.027,-0.054 -0.04,-0.118 -0.04,-0.192c-0,-0.074 0.013,-0.138 0.04,-0.192c0.028,-0.054 0.066,-0.096 0.117,-0.125c0.051,-0.029 0.112,-0.044 0.183,-0.044c0.039,0 0.077,0.005 0.114,0.016c0.036,0.011 0.067,0.026 0.094,0.046c0.015,0.009 0.023,0.02 0.026,0.033c0.002,0.013 -0,0.025 -0.006,0.035c-0.007,0.011 -0.016,0.018 -0.028,0.021c-0.012,0.003 -0.025,-0 -0.04,-0.01c-0.023,-0.017 -0.047,-0.029 -0.073,-0.037c-0.027,-0.008 -0.055,-0.012 -0.084,-0.012c-0.076,-0 -0.134,0.023 -0.174,0.07c-0.04,0.047 -0.06,0.113 -0.06,0.199c0,0.086 0.02,0.152 0.06,0.199c0.04,0.047 0.098,0.071 0.174,0.071c0.029,-0 0.058,-0.004 0.085,-0.012c0.027,-0.008 0.052,-0.021 0.076,-0.038c0.015,-0.009 0.028,-0.013 0.039,-0.01c0.011,0.003 0.02,0.01 0.026,0.02c0.006,0.01 0.008,0.021 0.006,0.033c-0.002,0.013 -0.009,0.023 -0.021,0.032c-0.028,0.022 -0.061,0.039 -0.098,0.05c-0.036,0.011 -0.075,0.017 -0.116,0.017Z" style="fill:#333;fill-rule:nonzero;"/>
                </g>
                <g transform="matrix(100,0,0,100,372.632,767.927)">
                    <path d="M0.134,0.007c-0.035,0 -0.052,-0.018 -0.052,-0.053l0,-0.613c0,-0.035 0.017,-0.053 0.052,-0.053c0.035,0 0.052,0.018 0.052,0.053l0,0.258l0.395,0l0,-0.258c0,-0.035 0.017,-0.053 0.052,-0.053c0.034,0 0.051,0.018 0.051,0.053l0,0.613c0,0.035 -0.017,0.053 -0.051,0.053c-0.035,0 -0.052,-0.018 -0.052,-0.053l0,-0.268l-0.395,0l0,0.268c0,0.035 -0.017,0.053 -0.052,0.053Z" style="fill:#333;fill-rule:nonzero;"/>
                </g>
                <g transform="matrix(100,0,0,100,449.332,767.927)">
                    <path d="M0.317,0.009c-0.046,0 -0.09,-0.005 -0.133,-0.016c-0.042,-0.011 -0.079,-0.027 -0.11,-0.048c-0.013,-0.009 -0.02,-0.019 -0.023,-0.032c-0.003,-0.012 -0.002,-0.023 0.004,-0.034c0.005,-0.01 0.012,-0.017 0.023,-0.021c0.01,-0.004 0.022,-0.002 0.035,0.007c0.03,0.019 0.062,0.033 0.095,0.042c0.033,0.009 0.07,0.014 0.109,0.014c0.057,-0 0.099,-0.01 0.126,-0.031c0.027,-0.02 0.04,-0.046 0.04,-0.079c-0,-0.027 -0.01,-0.048 -0.029,-0.064c-0.019,-0.015 -0.052,-0.028 -0.097,-0.037l-0.107,-0.022c-0.063,-0.013 -0.111,-0.035 -0.142,-0.066c-0.03,-0.031 -0.046,-0.072 -0.046,-0.124c0,-0.042 0.011,-0.079 0.034,-0.111c0.022,-0.032 0.053,-0.057 0.093,-0.075c0.04,-0.017 0.086,-0.026 0.138,-0.026c0.041,0 0.08,0.005 0.116,0.016c0.037,0.011 0.069,0.027 0.098,0.049c0.011,0.008 0.018,0.018 0.02,0.029c0.002,0.011 0,0.022 -0.005,0.031c-0.005,0.01 -0.013,0.017 -0.024,0.02c-0.011,0.003 -0.023,0.001 -0.037,-0.008c-0.026,-0.017 -0.053,-0.03 -0.08,-0.038c-0.027,-0.007 -0.057,-0.011 -0.089,-0.011c-0.049,-0 -0.089,0.011 -0.118,0.033c-0.029,0.022 -0.043,0.051 -0.043,0.088c-0,0.028 0.009,0.05 0.027,0.067c0.018,0.017 0.048,0.029 0.09,0.038l0.106,0.022c0.067,0.014 0.116,0.035 0.149,0.064c0.033,0.029 0.049,0.069 0.049,0.118c-0,0.041 -0.011,0.077 -0.033,0.108c-0.022,0.031 -0.053,0.054 -0.093,0.071c-0.04,0.017 -0.088,0.026 -0.143,0.026Z" style="fill:#333;fill-rule:nonzero;"/>
                </g>
                <g transform="matrix(100,0,0,100,511.532,767.927)">
                    <path d="M0.134,0.007c-0.035,0 -0.052,-0.018 -0.052,-0.053l0,-0.613c0,-0.035 0.017,-0.053 0.052,-0.053c0.035,0 0.052,0.018 0.052,0.053l0,0.613c0,0.035 -0.017,0.053 -0.052,0.053Z" style="fill:#333;fill-rule:nonzero;"/>
                </g>
                <g transform="matrix(100,0,0,100,538.332,767.927)">
                    <path d="M0.078,0.007c-0.02,0 -0.034,-0.007 -0.042,-0.02c-0.007,-0.012 -0.007,-0.028 0.002,-0.047l0.271,-0.608c0.007,-0.015 0.015,-0.027 0.025,-0.034c0.01,-0.006 0.022,-0.01 0.035,-0.01c0.012,-0 0.023,0.004 0.034,0.01c0.01,0.007 0.018,0.019 0.025,0.034l0.271,0.608c0.009,0.019 0.009,0.035 0.002,0.048c-0.007,0.013 -0.02,0.019 -0.039,0.019c-0.015,-0 -0.026,-0.004 -0.035,-0.011c-0.009,-0.007 -0.016,-0.019 -0.023,-0.034l-0.058,-0.134l-0.357,-0l-0.057,0.134c-0.007,0.016 -0.014,0.027 -0.022,0.034c-0.008,0.007 -0.019,0.011 -0.032,0.011Zm0.289,-0.597l-0.141,0.334l0.285,-0l-0.142,-0.334l-0.002,0Z" style="fill:#333;fill-rule:nonzero;"/>
                </g>
                <g transform="matrix(100,0,0,100,638.332,767.927)">
                    <path d="M0.143,0.009c-0.023,0 -0.04,-0.006 -0.052,-0.019c-0.012,-0.013 -0.018,-0.03 -0.018,-0.053l-0,-0.579c-0,-0.023 0.006,-0.041 0.019,-0.054c0.013,-0.012 0.031,-0.018 0.054,-0.018c0.02,0 0.036,0.004 0.047,0.012c0.012,0.008 0.023,0.021 0.033,0.039l0.214,0.391l0.214,-0.391c0.01,-0.018 0.021,-0.031 0.032,-0.039c0.012,-0.008 0.028,-0.012 0.047,-0.012c0.023,0 0.04,0.006 0.052,0.018c0.013,0.013 0.019,0.031 0.019,0.054l-0,0.579c-0,0.048 -0.023,0.072 -0.07,0.072c-0.047,-0 -0.071,-0.024 -0.071,-0.072l-0,-0.367l-0.164,0.295c-0.008,0.013 -0.017,0.022 -0.026,0.028c-0.009,0.007 -0.02,0.01 -0.035,0.01c-0.015,-0 -0.027,-0.003 -0.036,-0.01c-0.009,-0.006 -0.018,-0.015 -0.025,-0.028l-0.164,-0.292l-0,0.364c-0,0.048 -0.023,0.072 -0.07,0.072Z" style="fill:#333;fill-rule:nonzero;"/>
                </g>
                <g transform="matrix(100,0,0,100,725.932,767.927)">
                    <path d="M0.373,0.011c-0.1,0 -0.176,-0.026 -0.229,-0.077c-0.052,-0.051 -0.078,-0.128 -0.078,-0.229l0,-0.34c0,-0.025 0.007,-0.045 0.02,-0.058c0.013,-0.014 0.033,-0.021 0.058,-0.021c0.051,0 0.077,0.026 0.077,0.079l0,0.341c0,0.057 0.013,0.101 0.039,0.13c0.026,0.029 0.064,0.043 0.113,0.043c0.101,0 0.151,-0.058 0.151,-0.173l0,-0.341c0,-0.053 0.026,-0.079 0.077,-0.079c0.025,0 0.044,0.007 0.057,0.021c0.013,0.013 0.019,0.033 0.019,0.058l0,0.34c0,0.101 -0.026,0.178 -0.077,0.229c-0.051,0.051 -0.127,0.077 -0.227,0.077Z" style="fill:#333;fill-rule:nonzero;"/>
                </g>
                <g transform="matrix(100,0,0,100,800.232,767.927)">
                    <path d="M0.323,0.011c-0.043,0 -0.085,-0.005 -0.128,-0.014c-0.043,-0.009 -0.08,-0.023 -0.111,-0.041c-0.019,-0.01 -0.03,-0.024 -0.035,-0.041c-0.005,-0.016 -0.004,-0.033 0.003,-0.049c0.007,-0.016 0.017,-0.027 0.032,-0.034c0.015,-0.007 0.032,-0.005 0.053,0.005c0.027,0.015 0.056,0.027 0.089,0.034c0.033,0.007 0.065,0.011 0.097,0.011c0.048,0 0.082,-0.008 0.103,-0.023c0.021,-0.014 0.032,-0.033 0.032,-0.056c-0,-0.019 -0.007,-0.035 -0.022,-0.046c-0.015,-0.011 -0.04,-0.021 -0.077,-0.029l-0.113,-0.024c-0.126,-0.027 -0.189,-0.092 -0.189,-0.196c-0,-0.045 0.012,-0.084 0.036,-0.117c0.024,-0.034 0.057,-0.06 0.1,-0.079c0.043,-0.019 0.093,-0.028 0.15,-0.028c0.037,0 0.074,0.005 0.11,0.014c0.036,0.008 0.068,0.022 0.095,0.039c0.017,0.01 0.027,0.023 0.031,0.039c0.004,0.016 0.003,0.031 -0.004,0.046c-0.006,0.015 -0.017,0.025 -0.032,0.031c-0.014,0.006 -0.033,0.004 -0.055,-0.007c-0.022,-0.011 -0.045,-0.02 -0.07,-0.025c-0.025,-0.005 -0.05,-0.008 -0.076,-0.008c-0.042,0 -0.075,0.008 -0.098,0.024c-0.023,0.017 -0.034,0.038 -0.034,0.064c-0,0.019 0.007,0.035 0.021,0.047c0.014,0.012 0.038,0.022 0.073,0.029l0.113,0.024c0.129,0.028 0.194,0.091 0.194,0.19c0,0.044 -0.012,0.082 -0.035,0.115c-0.024,0.033 -0.057,0.059 -0.1,0.077c-0.043,0.019 -0.094,0.028 -0.153,0.028Z" style="fill:#333;fill-rule:nonzero;"/>
                </g>
                <g transform="matrix(100,0,0,100,862.832,767.927)">
                    <path d="M0.317,0.009c-0.025,0 -0.045,-0.007 -0.058,-0.021c-0.013,-0.014 -0.02,-0.034 -0.02,-0.059l0,-0.506l-0.177,0c-0.043,0 -0.065,-0.021 -0.065,-0.064c-0,-0.043 0.022,-0.064 0.065,-0.064l0.509,0c0.043,0 0.065,0.021 0.065,0.064c-0,0.043 -0.022,0.064 -0.065,0.064l-0.177,0l-0,0.506c-0,0.025 -0.007,0.045 -0.02,0.059c-0.013,0.014 -0.032,0.021 -0.057,0.021Z" style="fill:#333;fill-rule:nonzero;"/>
                </g>
                <g transform="matrix(100,0,0,100,926.032,767.927)">
                    <path d="M0.152,-0c-0.054,-0 -0.081,-0.027 -0.081,-0.081l0,-0.543c0,-0.054 0.027,-0.081 0.081,-0.081l0.349,0c0.041,0 0.061,0.02 0.061,0.06c0,0.041 -0.02,0.061 -0.061,0.061l-0.282,0l-0,0.165l0.259,0c0.041,0 0.062,0.02 0.062,0.061c0,0.041 -0.021,0.061 -0.062,0.061l-0.259,0l-0,0.176l0.282,0c0.041,0 0.061,0.02 0.061,0.06c0,0.041 -0.02,0.061 -0.061,0.061l-0.349,0Z" style="fill:#333;fill-rule:nonzero;"/>
                </g>
                <g transform="matrix(100,0,0,100,986.532,767.927)">
                    <path d="M0.149,0.009c-0.025,0 -0.045,-0.007 -0.058,-0.021c-0.013,-0.014 -0.02,-0.034 -0.02,-0.059l0,-0.555c0,-0.053 0.026,-0.079 0.079,-0.079l0.243,0c0.079,0 0.139,0.019 0.182,0.057c0.043,0.038 0.064,0.091 0.064,0.159c0,0.053 -0.013,0.096 -0.04,0.132c-0.027,0.034 -0.066,0.058 -0.116,0.071c0.035,0.011 0.064,0.036 0.087,0.077l0.062,0.115c0.014,0.025 0.017,0.049 0.008,0.07c-0.009,0.022 -0.03,0.033 -0.063,0.033c-0.022,-0 -0.04,-0.005 -0.054,-0.014c-0.014,-0.009 -0.026,-0.024 -0.036,-0.043l-0.096,-0.177c-0.01,-0.019 -0.022,-0.031 -0.037,-0.038c-0.015,-0.007 -0.032,-0.01 -0.052,-0.01l-0.076,-0l0,0.202c0,0.025 -0.006,0.045 -0.019,0.059c-0.013,0.014 -0.033,0.021 -0.058,0.021Zm0.077,-0.394l0.139,-0c0.083,-0 0.125,-0.033 0.125,-0.1c0,-0.066 -0.042,-0.099 -0.125,-0.099l-0.139,0l0,0.199Z" style="fill:#333;fill-rule:nonzero;"/>
                </g>
            </g>
        </g>
        <g transform="matrix(1,0,0,1,-182.153,-61.768)">
            <g transform="matrix(100,0,0,100,176.332,767.927)">
                <path d="M0.137,0.007c-0.037,0 -0.055,-0.018 -0.055,-0.055l-0,-0.601c-0,-0.037 0.019,-0.056 0.056,-0.056l0.356,0c0.029,0 0.043,0.014 0.043,0.041c0,0.029 -0.014,0.043 -0.043,0.043l-0.308,0l-0,0.225l0.288,0c0.029,-0 0.043,0.014 0.043,0.041c-0,0.029 -0.014,0.043 -0.043,0.043l-0.288,0l-0,0.264c-0,0.037 -0.016,0.055 -0.049,0.055Z" style="fill:#333;fill-rule:nonzero;"/>
            </g>
            <g transform="matrix(100,0,0,100,231.732,767.927)">
                <path d="M0.367,0.009c-0.094,0 -0.166,-0.025 -0.216,-0.075c-0.049,-0.049 -0.074,-0.122 -0.074,-0.218l0,-0.376c0,-0.035 0.017,-0.052 0.052,-0.052c0.035,0 0.052,0.017 0.052,0.052l0,0.374c-0,0.137 0.062,0.205 0.186,0.205c0.124,0 0.186,-0.068 0.186,-0.205l0,-0.374c0,-0.035 0.017,-0.052 0.051,-0.052c0.034,0 0.051,0.017 0.051,0.052l0,0.376c0,0.096 -0.024,0.169 -0.073,0.219c-0.049,0.049 -0.12,0.074 -0.215,0.074Z" style="fill:#333;fill-rule:nonzero;"/>
            </g>
            <g transform="matrix(100,0,0,100,305.032,767.927)">
                <path d="M0.398,0.009c-0.071,0 -0.132,-0.015 -0.183,-0.044c-0.051,-0.029 -0.09,-0.071 -0.117,-0.126c-0.027,-0.054 -0.04,-0.118 -0.04,-0.192c-0,-0.074 0.013,-0.138 0.04,-0.192c0.028,-0.054 0.066,-0.096 0.117,-0.125c0.051,-0.029 0.112,-0.044 0.183,-0.044c0.039,0 0.077,0.005 0.114,0.016c0.036,0.011 0.067,0.026 0.094,0.046c0.015,0.009 0.023,0.02 0.026,0.033c0.002,0.013 -0,0.025 -0.006,0.035c-0.007,0.011 -0.016,0.018 -0.028,0.021c-0.012,0.003 -0.025,-0 -0.04,-0.01c-0.023,-0.017 -0.047,-0.029 -0.073,-0.037c-0.027,-0.008 -0.055,-0.012 -0.084,-0.012c-0.076,-0 -0.134,0.023 -0.174,0.07c-0.04,0.047 -0.06,0.113 -0.06,0.199c0,0.086 0.02,0.152 0.06,0.199c0.04,0.047 0.098,0.071 0.174,0.071c0.029,-0 0.058,-0.004 0.085,-0.012c0.027,-0.008 0.052,-0.021 0.076,-0.038c0.015,-0.009 0.028,-0.013 0.039,-0.01c0.011,0.003 0.02,0.01 0.026,0.02c0.006,0.01 0.008,0.021 0.006,0.033c-0.002,0.013 -0.009,0.023 -0.021,0.032c-0.028,0.022 -0.061,0.039 -0.098,0.05c-0.036,0.011 -0.075,0.017 -0.116,0.017Z" style="fill:#333;fill-rule:nonzero;"/>
            </g>
            <g transform="matrix(100,0,0,100,372.632,767.927)">
                <path d="M0.134,0.007c-0.035,0 -0.052,-0.018 -0.052,-0.053l0,-0.613c0,-0.035 0.017,-0.053 0.052,-0.053c0.035,0 0.052,0.018 0.052,0.053l0,0.258l0.395,0l0,-0.258c0,-0.035 0.017,-0.053 0.052,-0.053c0.034,0 0.051,0.018 0.051,0.053l0,0.613c0,0.035 -0.017,0.053 -0.051,0.053c-0.035,0 -0.052,-0.018 -0.052,-0.053l0,-0.268l-0.395,0l0,0.268c0,0.035 -0.017,0.053 -0.052,0.053Z" style="fill:#333;fill-rule:nonzero;"/>
            </g>
            <g transform="matrix(100,0,0,100,449.332,767.927)">
                <path d="M0.317,0.009c-0.046,0 -0.09,-0.005 -0.133,-0.016c-0.042,-0.011 -0.079,-0.027 -0.11,-0.048c-0.013,-0.009 -0.02,-0.019 -0.023,-0.032c-0.003,-0.012 -0.002,-0.023 0.004,-0.034c0.005,-0.01 0.012,-0.017 0.023,-0.021c0.01,-0.004 0.022,-0.002 0.035,0.007c0.03,0.019 0.062,0.033 0.095,0.042c0.033,0.009 0.07,0.014 0.109,0.014c0.057,-0 0.099,-0.01 0.126,-0.031c0.027,-0.02 0.04,-0.046 0.04,-0.079c-0,-0.027 -0.01,-0.048 -0.029,-0.064c-0.019,-0.015 -0.052,-0.028 -0.097,-0.037l-0.107,-0.022c-0.063,-0.013 -0.111,-0.035 -0.142,-0.066c-0.03,-0.031 -0.046,-0.072 -0.046,-0.124c0,-0.042 0.011,-0.079 0.034,-0.111c0.022,-0.032 0.053,-0.057 0.093,-0.075c0.04,-0.017 0.086,-0.026 0.138,-0.026c0.041,0 0.08,0.005 0.116,0.016c0.037,0.011 0.069,0.027 0.098,0.049c0.011,0.008 0.018,0.018 0.02,0.029c0.002,0.011 0,0.022 -0.005,0.031c-0.005,0.01 -0.013,0.017 -0.024,0.02c-0.011,0.003 -0.023,0.001 -0.037,-0.008c-0.026,-0.017 -0.053,-0.03 -0.08,-0.038c-0.027,-0.007 -0.057,-0.011 -0.089,-0.011c-0.049,-0 -0.089,0.011 -0.118,0.033c-0.029,0.022 -0.043,0.051 -0.043,0.088c-0,0.028 0.009,0.05 0.027,0.067c0.018,0.017 0.048,0.029 0.09,0.038l0.106,0.022c0.067,0.014 0.116,0.035 0.149,0.064c0.033,0.029 0.049,0.069 0.049,0.118c-0,0.041 -0.011,0.077 -0.033,0.108c-0.022,0.031 -0.053,0.054 -0.093,0.071c-0.04,0.017 -0.088,0.026 -0.143,0.026Z" style="fill:#333;fill-rule:nonzero;"/>
            </g>
            <g transform="matrix(100,0,0,100,511.532,767.927)">
                <path d="M0.134,0.007c-0.035,0 -0.052,-0.018 -0.052,-0.053l0,-0.613c0,-0.035 0.017,-0.053 0.052,-0.053c0.035,0 0.052,0.018 0.052,0.053l0,0.613c0,0.035 -0.017,0.053 -0.052,0.053Z" style="fill:#333;fill-rule:nonzero;"/>
            </g>
            <g transform="matrix(100,0,0,100,538.332,767.927)">
                <path d="M0.078,0.007c-0.02,0 -0.034,-0.007 -0.042,-0.02c-0.007,-0.012 -0.007,-0.028 0.002,-0.047l0.271,-0.608c0.007,-0.015 0.015,-0.027 0.025,-0.034c0.01,-0.006 0.022,-0.01 0.035,-0.01c0.012,-0 0.023,0.004 0.034,0.01c0.01,0.007 0.018,0.019 0.025,0.034l0.271,0.608c0.009,0.019 0.009,0.035 0.002,0.048c-0.007,0.013 -0.02,0.019 -0.039,0.019c-0.015,-0 -0.026,-0.004 -0.035,-0.011c-0.009,-0.007 -0.016,-0.019 -0.023,-0.034l-0.058,-0.134l-0.357,-0l-0.057,0.134c-0.007,0.016 -0.014,0.027 -0.022,0.034c-0.008,0.007 -0.019,0.011 -0.032,0.011Zm0.289,-0.597l-0.141,0.334l0.285,-0l-0.142,-0.334l-0.002,0Z" style="fill:#333;fill-rule:nonzero;"/>
            </g>
            <g transform="matrix(100,0,0,100,638.332,767.927)">
                <path d="M0.143,0.009c-0.023,0 -0.04,-0.006 -0.052,-0.019c-0.012,-0.013 -0.018,-0.03 -0.018,-0.053l-0,-0.579c-0,-0.023 0.006,-0.041 0.019,-0.054c0.013,-0.012 0.031,-0.018 0.054,-0.018c0.02,0 0.036,0.004 0.047,0.012c0.012,0.008 0.023,0.021 0.033,0.039l0.214,0.391l0.214,-0.391c0.01,-0.018 0.021,-0.031 0.032,-0.039c0.012,-0.008 0.028,-0.012 0.047,-0.012c0.023,0 0.04,0.006 0.052,0.018c0.013,0.013 0.019,0.031 0.019,0.054l-0,0.579c-0,0.048 -0.023,0.072 -0.07,0.072c-0.047,-0 -0.071,-0.024 -0.071,-0.072l-0,-0.367l-0.164,0.295c-0.008,0.013 -0.017,0.022 -0.026,0.028c-0.009,0.007 -0.02,0.01 -0.035,0.01c-0.015,-0 -0.027,-0.003 -0.036,-0.01c-0.009,-0.006 -0.018,-0.015 -0.025,-0.028l-0.164,-0.292l-0,0.364c-0,0.048 -0.023,0.072 -0.07,0.072Z" style="fill:#333;fill-rule:nonzero;"/>
            </g>
            <g transform="matrix(100,0,0,100,725.932,767.927)">
                <path d="M0.373,0.011c-0.1,0 -0.176,-0.026 -0.229,-0.077c-0.052,-0.051 -0.078,-0.128 -0.078,-0.229l0,-0.34c0,-0.025 0.007,-0.045 0.02,-0.058c0.013,-0.014 0.033,-0.021 0.058,-0.021c0.051,0 0.077,0.026 0.077,0.079l0,0.341c0,0.057 0.013,0.101 0.039,0.13c0.026,0.029 0.064,0.043 0.113,0.043c0.101,0 0.151,-0.058 0.151,-0.173l0,-0.341c0,-0.053 0.026,-0.079 0.077,-0.079c0.025,0 0.044,0.007 0.057,0.021c0.013,0.013 0.019,0.033 0.019,0.058l0,0.34c0,0.101 -0.026,0.178 -0.077,0.229c-0.051,0.051 -0.127,0.077 -0.227,0.077Z" style="fill:#333;fill-rule:nonzero;"/>
            </g>
            <g transform="matrix(100,0,0,100,800.232,767.927)">
                <path d="M0.323,0.011c-0.043,0 -0.085,-0.005 -0.128,-0.014c-0.043,-0.009 -0.08,-0.023 -0.111,-0.041c-0.019,-0.01 -0.03,-0.024 -0.035,-0.041c-0.005,-0.016 -0.004,-0.033 0.003,-0.049c0.007,-0.016 0.017,-0.027 0.032,-0.034c0.015,-0.007 0.032,-0.005 0.053,0.005c0.027,0.015 0.056,0.027 0.089,0.034c0.033,0.007 0.065,0.011 0.097,0.011c0.048,0 0.082,-0.008 0.103,-0.023c0.021,-0.014 0.032,-0.033 0.032,-0.056c-0,-0.019 -0.007,-0.035 -0.022,-0.046c-0.015,-0.011 -0.04,-0.021 -0.077,-0.029l-0.113,-0.024c-0.126,-0.027 -0.189,-0.092 -0.189,-0.196c-0,-0.045 0.012,-0.084 0.036,-0.117c0.024,-0.034 0.057,-0.06 0.1,-0.079c0.043,-0.019 0.093,-0.028 0.15,-0.028c0.037,0 0.074,0.005 0.11,0.014c0.036,0.008 0.068,0.022 0.095,0.039c0.017,0.01 0.027,0.023 0.031,0.039c0.004,0.016 0.003,0.031 -0.004,0.046c-0.006,0.015 -0.017,0.025 -0.032,0.031c-0.014,0.006 -0.033,0.004 -0.055,-0.007c-0.022,-0.011 -0.045,-0.02 -0.07,-0.025c-0.025,-0.005 -0.05,-0.008 -0.076,-0.008c-0.042,0 -0.075,0.008 -0.098,0.024c-0.023,0.017 -0.034,0.038 -0.034,0.064c-0,0.019 0.007,0.035 0.021,0.047c0.014,0.012 0.038,0.022 0.073,0.029l0.113,0.024c0.129,0.028 0.194,0.091 0.194,0.19c0,0.044 -0.012,0.082 -0.035,0.115c-0.024,0.033 -0.057,0.059 -0.1,0.077c-0.043,0.019 -0.094,0.028 -0.153,0.028Z" style="fill:#333;fill-rule:nonzero;"/>
            </g>
            <g transform="matrix(100,0,0,100,862.832,767.927)">
                <path d="M0.317,0.009c-0.025,0 -0.045,-0.007 -0.058,-0.021c-0.013,-0.014 -0.02,-0.034 -0.02,-0.059l0,-0.506l-0.177,0c-0.043,0 -0.065,-0.021 -0.065,-0.064c-0,-0.043 0.022,-0.064 0.065,-0.064l0.509,0c0.043,0 0.065,0.021 0.065,0.064c-0,0.043 -0.022,0.064 -0.065,0.064l-0.177,0l-0,0.506c-0,0.025 -0.007,0.045 -0.02,0.059c-0.013,0.014 -0.032,0.021 -0.057,0.021Z" style="fill:#333;fill-rule:nonzero;"/>
            </g>
            <g transform="matrix(100,0,0,100,926.032,767.927)">
                <path d="M0.152,-0c-0.054,-0 -0.081,-0.027 -0.081,-0.081l0,-0.543c0,-0.054 0.027,-0.081 0.081,-0.081l0.349,0c0.041,0 0.061,0.02 0.061,0.06c0,0.041 -0.02,0.061 -0.061,0.061l-0.282,0l-0,0.165l0.259,0c0.041,0 0.062,0.02 0.062,0.061c0,0.041 -0.021,0.061 -0.062,0.061l-0.259,0l-0,0.176l0.282,0c0.041,0 0.061,0.02 0.061,0.06c0,0.041 -0.02,0.061 -0.061,0.061l-0.349,0Z" style="fill:#333;fill-rule:nonzero;"/>
            </g>
            <g transform="matrix(100,0,0,100,986.532,767.927)">
                <path d="M0.149,0.009c-0.025,0 -0.045,-0.007 -0.058,-0.021c-0.013,-0.014 -0.02,-0.034 -0.02,-0.059l0,-0.555c0,-0.053 0.026,-0.079 0.079,-0.079l0.243,0c0.079,0 0.139,0.019 0.182,0.057c0.043,0.038 0.064,0.091 0.064,0.159c0,0.053 -0.013,0.096 -0.04,0.132c-0.027,0.034 -0.066,0.058 -0.116,0.071c0.035,0.011 0.064,0.036 0.087,0.077l0.062,0.115c0.014,0.025 0.017,0.049 0.008,0.07c-0.009,0.022 -0.03,0.033 -0.063,0.033c-0.022,-0 -0.04,-0.005 -0.054,-0.014c-0.014,-0.009 -0.026,-0.024 -0.036,-0.043l-0.096,-0.177c-0.01,-0.019 -0.022,-0.031 -0.037,-0.038c-0.015,-0.007 -0.032,-0.01 -0.052,-0.01l-0.076,-0l0,0.202c0,0.025 -0.006,0.045 -0.019,0.059c-0.013,0.014 -0.033,0.021 -0.058,0.021Zm0.077,-0.394l0.139,-0c0.083,-0 0.125,-0.033 0.125,-0.1c0,-0.066 -0.042,-0.099 -0.125,-0.099l-0.139,0l0,0.199Z" style="fill:#333;fill-rule:nonzero;"/>
            </g>
        </g>
        <path d="M168.636,779.664c-0.686,0 -1.119,-0.234 -1.3,-0.704c-0.18,-0.469 -0.072,-1.029 0.325,-1.679l4.55,-7.8l-6.446,-24.104c-0.18,-0.722 -0.126,-1.309 0.163,-1.76c0.289,-0.452 0.758,-0.678 1.408,-0.678c0.47,0 0.822,0.127 1.057,0.38c0.234,0.252 0.424,0.65 0.568,1.191l5.417,21.396l12.512,-21.721c0.47,-0.83 1.084,-1.246 1.842,-1.246c0.65,0 1.101,0.244 1.354,0.732c0.253,0.487 0.181,1.056 -0.216,1.706l-19.446,33.042c-0.217,0.433 -0.461,0.749 -0.731,0.948c-0.271,0.198 -0.623,0.297 -1.057,0.297Z" style="fill:#f0f;fill-rule:nonzero;"/>
        <path d="M203.086,770.023c-3.394,-0 -6.066,-1.011 -8.016,-3.034c-1.95,-2.022 -2.925,-4.82 -2.925,-8.395c-0,-2.853 0.532,-5.471 1.598,-7.855c1.065,-2.383 2.609,-4.297 4.631,-5.741c2.022,-1.445 4.441,-2.167 7.258,-2.167c3.358,0 6.022,1.02 7.99,3.061c1.968,2.04 2.952,4.829 2.952,8.368c-0,2.889 -0.542,5.525 -1.625,7.909c-1.084,2.383 -2.627,4.288 -4.631,5.714c-2.005,1.427 -4.415,2.14 -7.232,2.14Zm0.109,-2.763c2.166,0 3.99,-0.596 5.47,-1.787c1.481,-1.192 2.609,-2.781 3.386,-4.767c0.776,-1.986 1.164,-4.171 1.164,-6.554c0,-2.781 -0.686,-4.893 -2.058,-6.338c-1.372,-1.444 -3.268,-2.166 -5.687,-2.166c-2.131,-0 -3.946,0.596 -5.444,1.787c-1.499,1.192 -2.627,2.781 -3.386,4.767c-0.758,1.986 -1.137,4.171 -1.137,6.554c-0,2.781 0.677,4.893 2.031,6.338c1.354,1.444 3.241,2.166 5.661,2.166Z" style="fill:#f0f;fill-rule:nonzero;"/>
        <path d="M230.82,770.023c-2.853,-0 -5.02,-0.876 -6.5,-2.627c-1.481,-1.752 -1.932,-4.469 -1.355,-8.152l2.33,-14.68c0.18,-1.083 0.794,-1.625 1.841,-1.625c0.542,0 0.948,0.172 1.219,0.515c0.271,0.343 0.352,0.804 0.244,1.381l-2.275,14.463c-0.867,5.272 0.848,7.908 5.146,7.908c2.744,0 4.947,-0.876 6.608,-2.627c1.661,-1.751 2.726,-4.09 3.196,-7.015l2.004,-13c0.18,-1.083 0.812,-1.625 1.896,-1.625c1.119,0 1.589,0.596 1.408,1.788l-3.737,23.617c-0.145,1.047 -0.741,1.57 -1.788,1.57c-1.119,0 -1.589,-0.613 -1.408,-1.841l0.487,-3.034c-0.975,1.589 -2.266,2.817 -3.873,3.684c-1.607,0.866 -3.421,1.3 -5.443,1.3Z" style="fill:#f0f;fill-rule:nonzero;"/>
        <path d="M273.72,770.023c-1.481,-0 -2.871,-0.325 -4.171,-0.975c-1.3,-0.65 -2.356,-1.562 -3.169,-2.736c-0.812,-1.173 -1.219,-2.536 -1.219,-4.089c0,-2.745 1.183,-4.713 3.548,-5.904c2.365,-1.192 6.148,-1.788 11.348,-1.788l3.846,0l0.271,-1.896c0.397,-2.275 0.126,-4.008 -0.813,-5.2c-0.939,-1.191 -2.6,-1.787 -4.983,-1.787c-1.408,-0 -2.735,0.144 -3.981,0.433c-1.246,0.289 -2.447,0.795 -3.602,1.517c-0.65,0.397 -1.201,0.46 -1.652,0.189c-0.452,-0.27 -0.669,-0.677 -0.65,-1.218c0.018,-0.542 0.388,-1.011 1.11,-1.409c1.3,-0.794 2.735,-1.381 4.306,-1.76c1.571,-0.379 3.151,-0.569 4.74,-0.569c3.394,0 5.814,0.966 7.258,2.898c1.445,1.932 1.896,4.541 1.354,7.827l-2.329,14.733c-0.18,1.084 -0.794,1.625 -1.842,1.625c-1.047,0 -1.48,-0.631 -1.3,-1.895l0.434,-2.655c-0.939,1.589 -2.185,2.763 -3.738,3.521c-1.553,0.759 -3.141,1.138 -4.766,1.138Zm0.595,-2.654c2.095,-0 3.982,-0.714 5.661,-2.14c1.679,-1.426 2.735,-3.421 3.169,-5.985l0.325,-2.275l-2.655,-0c-3.069,-0 -5.488,0.153 -7.258,0.46c-1.769,0.307 -3.024,0.84 -3.764,1.598c-0.741,0.758 -1.111,1.769 -1.111,3.033c0,1.77 0.569,3.097 1.706,3.982c1.138,0.884 2.447,1.327 3.927,1.327Z" style="fill:#f0f;fill-rule:nonzero;"/>
        <path d="M295.007,769.914c-1.155,0 -1.607,-0.631 -1.354,-1.895l3.683,-23.455c0.145,-1.083 0.759,-1.625 1.842,-1.625c0.505,0 0.885,0.172 1.137,0.515c0.253,0.343 0.325,0.822 0.217,1.435l-0.433,2.763c0.939,-1.553 2.221,-2.744 3.846,-3.575c1.625,-0.831 3.376,-1.264 5.254,-1.3c0.686,-0 1.164,0.09 1.435,0.271c0.271,0.18 0.406,0.487 0.406,0.921c0,0.541 -0.126,0.948 -0.379,1.218c-0.253,0.271 -0.722,0.443 -1.408,0.515l-0.867,0.054c-3.105,0.289 -5.335,1.219 -6.689,2.79c-1.354,1.571 -2.23,3.638 -2.627,6.202l-2.167,13.596c-0.181,1.047 -0.813,1.57 -1.896,1.57Z" style="fill:#f0f;fill-rule:nonzero;"/>
        <path d="M323.607,770.023c-3.647,-0 -6.518,-1.011 -8.612,-3.034c-2.095,-2.022 -3.142,-4.82 -3.142,-8.395c-0,-2.817 0.551,-5.417 1.652,-7.8c1.101,-2.384 2.672,-4.307 4.713,-5.769c2.04,-1.463 4.504,-2.194 7.393,-2.194c2.672,0 4.785,0.623 6.338,1.869c1.553,1.246 2.609,2.844 3.169,4.794c0.559,1.95 0.695,4.008 0.406,6.175c-0.072,0.577 -0.217,0.966 -0.434,1.164c-0.216,0.199 -0.559,0.298 -1.029,0.298l-18.904,0c-0.361,3.033 0.217,5.48 1.733,7.34c1.517,1.859 3.774,2.789 6.771,2.789c1.445,0 2.781,-0.171 4.009,-0.514c1.227,-0.343 2.419,-0.93 3.575,-1.761c0.686,-0.469 1.236,-0.587 1.652,-0.352c0.415,0.235 0.632,0.623 0.65,1.165c0.018,0.541 -0.28,1.029 -0.894,1.462c-1.192,0.903 -2.6,1.589 -4.225,2.059c-1.625,0.469 -3.232,0.704 -4.821,0.704Zm1.95,-24.538c-2.058,0 -3.774,0.452 -5.146,1.354c-1.372,0.903 -2.455,2.059 -3.25,3.467c-0.794,1.408 -1.336,2.871 -1.625,4.388l17.225,-0c0.181,-1.698 0.054,-3.241 -0.379,-4.632c-0.433,-1.39 -1.201,-2.5 -2.302,-3.331c-1.101,-0.83 -2.609,-1.246 -4.523,-1.246Z" style="fill:#f0f;fill-rule:nonzero;"/>
        <path d="M362.282,769.914c-0.469,0 -0.894,-0.144 -1.273,-0.433c-0.379,-0.289 -0.623,-0.74 -0.731,-1.354l-4.55,-22.588c-0.145,-0.758 -0.081,-1.381 0.19,-1.868c0.27,-0.488 0.713,-0.732 1.327,-0.732c0.505,0 0.866,0.127 1.083,0.38c0.217,0.252 0.379,0.668 0.487,1.245l3.955,21.125l11.104,-21.395c0.469,-0.903 1.173,-1.355 2.112,-1.355c0.47,0 0.876,0.136 1.219,0.407c0.343,0.271 0.569,0.695 0.677,1.273l4.117,21.233l11.05,-21.667c0.433,-0.83 1.029,-1.246 1.787,-1.246c0.686,0 1.129,0.226 1.327,0.678c0.199,0.451 0.136,0.984 -0.189,1.597l-12.079,23.292c-0.506,0.939 -1.246,1.408 -2.221,1.408c-1.12,0 -1.806,-0.595 -2.059,-1.787l-4.116,-20.529l-10.942,20.854c-0.469,0.975 -1.228,1.462 -2.275,1.462Z" style="fill:#f0f;fill-rule:nonzero;"/>
        <path d="M410.707,770.023c-3.647,-0 -6.518,-1.011 -8.612,-3.034c-2.095,-2.022 -3.142,-4.82 -3.142,-8.395c-0,-2.817 0.551,-5.417 1.652,-7.8c1.101,-2.384 2.672,-4.307 4.713,-5.769c2.04,-1.463 4.504,-2.194 7.393,-2.194c2.672,0 4.785,0.623 6.338,1.869c1.553,1.246 2.609,2.844 3.169,4.794c0.559,1.95 0.695,4.008 0.406,6.175c-0.072,0.577 -0.217,0.966 -0.434,1.164c-0.216,0.199 -0.559,0.298 -1.029,0.298l-18.904,0c-0.361,3.033 0.217,5.48 1.733,7.34c1.517,1.859 3.774,2.789 6.771,2.789c1.445,0 2.781,-0.171 4.009,-0.514c1.227,-0.343 2.419,-0.93 3.575,-1.761c0.686,-0.469 1.236,-0.587 1.652,-0.352c0.415,0.235 0.632,0.623 0.65,1.165c0.018,0.541 -0.28,1.029 -0.894,1.462c-1.192,0.903 -2.6,1.589 -4.225,2.059c-1.625,0.469 -3.232,0.704 -4.821,0.704Zm1.95,-24.538c-2.058,0 -3.774,0.452 -5.146,1.354c-1.372,0.903 -2.455,2.059 -3.25,3.467c-0.794,1.408 -1.336,2.871 -1.625,4.388l17.225,-0c0.181,-1.698 0.054,-3.241 -0.379,-4.632c-0.433,-1.39 -1.201,-2.5 -2.302,-3.331c-1.101,-0.83 -2.609,-1.246 -4.523,-1.246Z" style="fill:#f0f;fill-rule:nonzero;"/>
        <path d="M434.757,770.023c-2.419,-0 -4.189,-0.722 -5.308,-2.167c-1.12,-1.444 -1.445,-3.593 -0.975,-6.446l4.55,-28.708c0.144,-1.083 0.776,-1.625 1.896,-1.625c1.119,-0 1.57,0.65 1.354,1.95l-4.496,28.383c-0.325,2.059 -0.181,3.53 0.433,4.415c0.614,0.885 1.716,1.327 3.304,1.327c0.542,-0 0.966,-0.036 1.273,-0.108c0.307,-0.073 0.533,-0.109 0.677,-0.109c0.217,0 0.389,0.073 0.515,0.217c0.126,0.144 0.19,0.433 0.19,0.867c-0,0.505 -0.136,0.911 -0.407,1.218c-0.27,0.307 -0.641,0.515 -1.11,0.623c-0.253,0.073 -0.569,0.118 -0.948,0.136c-0.379,0.018 -0.695,0.027 -0.948,0.027Z" style="fill:#f0f;fill-rule:nonzero;"/>
        <path d="M453.77,770.023c-3.756,-0 -6.537,-1.065 -8.342,-3.196c-1.806,-2.131 -2.708,-4.911 -2.708,-8.342c-0,-1.914 0.261,-3.8 0.785,-5.66c0.524,-1.86 1.336,-3.539 2.438,-5.038c1.101,-1.498 2.518,-2.699 4.252,-3.602c1.733,-0.902 3.791,-1.354 6.175,-1.354c1.372,0 2.717,0.208 4.035,0.623c1.318,0.415 2.428,0.948 3.331,1.598c0.686,0.506 1.038,1.047 1.057,1.625c0.018,0.578 -0.172,1.011 -0.569,1.3c-0.397,0.289 -0.885,0.217 -1.463,-0.217c-1.805,-1.372 -3.936,-2.058 -6.391,-2.058c-1.842,-0 -3.413,0.361 -4.713,1.083c-1.3,0.723 -2.365,1.707 -3.196,2.952c-0.83,1.246 -1.435,2.627 -1.814,4.144c-0.379,1.517 -0.569,3.052 -0.569,4.604c-0,2.636 0.623,4.749 1.869,6.338c1.246,1.589 3.295,2.383 6.148,2.383c0.902,0 1.877,-0.153 2.925,-0.46c1.047,-0.307 2.04,-0.804 2.979,-1.49c0.541,-0.361 1.02,-0.406 1.435,-0.135c0.415,0.271 0.65,0.659 0.704,1.164c0.055,0.506 -0.189,0.957 -0.731,1.354c-1.011,0.759 -2.212,1.346 -3.602,1.761c-1.39,0.415 -2.735,0.623 -4.035,0.623Z" style="fill:#f0f;fill-rule:nonzero;"/>
        <path d="M477.928,770.023c-3.395,-0 -6.067,-1.011 -8.017,-3.034c-1.95,-2.022 -2.925,-4.82 -2.925,-8.395c0,-2.853 0.533,-5.471 1.598,-7.855c1.065,-2.383 2.609,-4.297 4.631,-5.741c2.023,-1.445 4.442,-2.167 7.259,-2.167c3.358,0 6.021,1.02 7.989,3.061c1.968,2.04 2.952,4.829 2.952,8.368c0,2.889 -0.541,5.525 -1.625,7.909c-1.083,2.383 -2.627,4.288 -4.631,5.714c-2.004,1.427 -4.414,2.14 -7.231,2.14Zm0.108,-2.763c2.167,0 3.991,-0.596 5.471,-1.787c1.481,-1.192 2.609,-2.781 3.386,-4.767c0.776,-1.986 1.164,-4.171 1.164,-6.554c0,-2.781 -0.686,-4.893 -2.058,-6.338c-1.372,-1.444 -3.268,-2.166 -5.688,-2.166c-2.13,-0 -3.945,0.596 -5.443,1.787c-1.499,1.192 -2.628,2.781 -3.386,4.767c-0.758,1.986 -1.137,4.171 -1.137,6.554c-0,2.781 0.677,4.893 2.031,6.338c1.354,1.444 3.241,2.166 5.66,2.166Z" style="fill:#f0f;fill-rule:nonzero;"/>
        <path d="M498.024,769.914c-1.12,0 -1.571,-0.631 -1.354,-1.895l3.683,-23.455c0.18,-1.083 0.812,-1.625 1.896,-1.625c1.047,0 1.48,0.65 1.3,1.95l-0.488,3.088c2.022,-3.431 4.911,-5.146 8.667,-5.146c1.95,0 3.557,0.488 4.821,1.463c1.264,0.975 2.094,2.383 2.491,4.225c0.903,-1.77 2.167,-3.16 3.792,-4.171c1.625,-1.011 3.521,-1.517 5.688,-1.517c2.744,0 4.811,0.885 6.202,2.654c1.39,1.77 1.796,4.496 1.218,8.179l-2.275,14.68c-0.18,1.047 -0.812,1.57 -1.895,1.57c-1.12,0 -1.589,-0.631 -1.409,-1.895l2.275,-14.625c0.831,-5.128 -0.776,-7.692 -4.821,-7.692c-2.383,-0 -4.36,0.849 -5.931,2.546c-1.571,1.697 -2.591,4.044 -3.06,7.041l-2.059,13.055c-0.144,1.047 -0.776,1.57 -1.895,1.57c-1.156,0 -1.607,-0.631 -1.355,-1.895l2.33,-14.625c0.794,-5.128 -0.813,-7.692 -4.821,-7.692c-2.384,-0 -4.37,0.849 -5.959,2.546c-1.588,1.697 -2.618,4.044 -3.087,7.041l-2.004,13.055c-0.181,1.047 -0.831,1.57 -1.95,1.57Z" style="fill:#f0f;fill-rule:nonzero;"/>
        <path d="M554.249,770.023c-3.647,-0 -6.518,-1.011 -8.613,-3.034c-2.094,-2.022 -3.141,-4.82 -3.141,-8.395c-0,-2.817 0.55,-5.417 1.652,-7.8c1.101,-2.384 2.672,-4.307 4.712,-5.769c2.04,-1.463 4.505,-2.194 7.394,-2.194c2.672,0 4.785,0.623 6.337,1.869c1.553,1.246 2.609,2.844 3.169,4.794c0.56,1.95 0.695,4.008 0.406,6.175c-0.072,0.577 -0.216,0.966 -0.433,1.164c-0.217,0.199 -0.56,0.298 -1.029,0.298l-18.904,0c-0.361,3.033 0.216,5.48 1.733,7.34c1.517,1.859 3.774,2.789 6.771,2.789c1.444,0 2.78,-0.171 4.008,-0.514c1.228,-0.343 2.42,-0.93 3.575,-1.761c0.686,-0.469 1.237,-0.587 1.652,-0.352c0.416,0.235 0.632,0.623 0.65,1.165c0.018,0.541 -0.28,1.029 -0.893,1.462c-1.192,0.903 -2.6,1.589 -4.225,2.059c-1.625,0.469 -3.232,0.704 -4.821,0.704Zm1.95,-24.538c-2.059,0 -3.774,0.452 -5.146,1.354c-1.372,0.903 -2.456,2.059 -3.25,3.467c-0.795,1.408 -1.336,2.871 -1.625,4.388l17.225,-0c0.18,-1.698 0.054,-3.241 -0.379,-4.632c-0.434,-1.39 -1.201,-2.5 -2.302,-3.331c-1.102,-0.83 -2.609,-1.246 -4.523,-1.246Z" style="fill:#f0f;fill-rule:nonzero;"/>
        <path d="M594.495,770.023c-2.853,-0 -4.948,-0.813 -6.284,-2.438c-1.336,-1.625 -1.787,-3.846 -1.354,-6.662l2.383,-14.95l-3.791,-0c-1.047,-0 -1.571,-0.379 -1.571,-1.138c-0,-1.011 0.596,-1.516 1.787,-1.516l3.955,-0l1.137,-6.88c0.145,-1.047 0.758,-1.57 1.842,-1.57c1.155,-0 1.625,0.632 1.408,1.895l-1.083,6.555l7.096,-0c1.047,-0 1.57,0.361 1.57,1.083c0,1.047 -0.577,1.571 -1.733,1.571l-7.367,-0l-2.275,14.516c-0.361,2.348 -0.126,4.045 0.705,5.092c0.83,1.047 2.166,1.571 4.008,1.571c0.794,-0 1.417,-0.081 1.869,-0.244c0.451,-0.162 0.821,-0.244 1.11,-0.244c0.578,0 0.867,0.362 0.867,1.084c-0,0.541 -0.081,0.939 -0.244,1.191c-0.162,0.253 -0.424,0.452 -0.785,0.596c-0.398,0.145 -0.903,0.262 -1.517,0.352c-0.614,0.091 -1.192,0.136 -1.733,0.136Z" style="fill:#f0f;fill-rule:nonzero;"/>
        <path d="M613.507,770.023c-3.394,-0 -6.067,-1.011 -8.017,-3.034c-1.95,-2.022 -2.925,-4.82 -2.925,-8.395c0,-2.853 0.533,-5.471 1.598,-7.855c1.066,-2.383 2.609,-4.297 4.632,-5.741c2.022,-1.445 4.441,-2.167 7.258,-2.167c3.358,0 6.021,1.02 7.99,3.061c1.968,2.04 2.952,4.829 2.952,8.368c-0,2.889 -0.542,5.525 -1.625,7.909c-1.084,2.383 -2.627,4.288 -4.632,5.714c-2.004,1.427 -4.414,2.14 -7.231,2.14Zm0.108,-2.763c2.167,0 3.991,-0.596 5.471,-1.787c1.481,-1.192 2.609,-2.781 3.386,-4.767c0.776,-1.986 1.164,-4.171 1.164,-6.554c0,-2.781 -0.686,-4.893 -2.058,-6.338c-1.372,-1.444 -3.268,-2.166 -5.688,-2.166c-2.13,-0 -3.945,0.596 -5.443,1.787c-1.499,1.192 -2.627,2.781 -3.386,4.767c-0.758,1.986 -1.137,4.171 -1.137,6.554c-0,2.781 0.677,4.893 2.031,6.338c1.354,1.444 3.241,2.166 5.66,2.166Z" style="fill:#f0f;fill-rule:nonzero;"/>
        <path d="M647.199,769.914c-1.156,0 -1.607,-0.631 -1.354,-1.895l3.683,-23.455c0.144,-1.083 0.758,-1.625 1.842,-1.625c0.505,0 0.884,0.172 1.137,0.515c0.253,0.343 0.325,0.822 0.217,1.435l-0.434,2.763c0.939,-1.553 2.221,-2.744 3.846,-3.575c1.625,-0.831 3.377,-1.264 5.254,-1.3c0.687,-0 1.165,0.09 1.436,0.271c0.271,0.18 0.406,0.487 0.406,0.921c0,0.541 -0.126,0.948 -0.379,1.218c-0.253,0.271 -0.722,0.443 -1.408,0.515l-0.867,0.054c-3.106,0.289 -5.335,1.219 -6.69,2.79c-1.354,1.571 -2.23,3.638 -2.627,6.202l-2.166,13.596c-0.181,1.047 -0.813,1.57 -1.896,1.57Z" style="fill:#f0f;fill-rule:nonzero;"/>
        <path d="M675.799,770.023c-3.647,-0 -6.518,-1.011 -8.613,-3.034c-2.094,-2.022 -3.141,-4.82 -3.141,-8.395c-0,-2.817 0.55,-5.417 1.652,-7.8c1.101,-2.384 2.672,-4.307 4.712,-5.769c2.04,-1.463 4.505,-2.194 7.394,-2.194c2.672,0 4.785,0.623 6.337,1.869c1.553,1.246 2.609,2.844 3.169,4.794c0.56,1.95 0.695,4.008 0.406,6.175c-0.072,0.577 -0.216,0.966 -0.433,1.164c-0.217,0.199 -0.56,0.298 -1.029,0.298l-18.904,0c-0.361,3.033 0.216,5.48 1.733,7.34c1.517,1.859 3.774,2.789 6.771,2.789c1.444,0 2.78,-0.171 4.008,-0.514c1.228,-0.343 2.42,-0.93 3.575,-1.761c0.686,-0.469 1.237,-0.587 1.652,-0.352c0.416,0.235 0.632,0.623 0.65,1.165c0.018,0.541 -0.28,1.029 -0.893,1.462c-1.192,0.903 -2.6,1.589 -4.225,2.059c-1.625,0.469 -3.232,0.704 -4.821,0.704Zm1.95,-24.538c-2.059,0 -3.774,0.452 -5.146,1.354c-1.372,0.903 -2.456,2.059 -3.25,3.467c-0.795,1.408 -1.336,2.871 -1.625,4.388l17.225,-0c0.18,-1.698 0.054,-3.241 -0.379,-4.632c-0.434,-1.39 -1.201,-2.5 -2.302,-3.331c-1.102,-0.83 -2.609,-1.246 -4.523,-1.246Z" style="fill:#f0f;fill-rule:nonzero;"/>
        <path d="M702.774,770.023c-3.07,-0 -5.534,-1.002 -7.394,-3.006c-1.86,-2.005 -2.79,-4.74 -2.79,-8.207c0,-2.852 0.506,-5.489 1.517,-7.908c1.011,-2.419 2.492,-4.369 4.442,-5.85c1.95,-1.481 4.333,-2.221 7.15,-2.221c2.058,0 3.891,0.488 5.498,1.463c1.607,0.975 2.771,2.473 3.493,4.495l2.6,-16.141c0.145,-1.047 0.777,-1.571 1.896,-1.571c1.084,-0 1.517,0.632 1.3,1.896l-5.579,35.316c-0.144,1.084 -0.776,1.625 -1.896,1.625c-1.083,0 -1.516,-0.65 -1.3,-1.95l0.488,-2.925c-1.011,1.553 -2.311,2.772 -3.9,3.657c-1.589,0.884 -3.431,1.327 -5.525,1.327Zm0.866,-2.763c2.167,0 3.991,-0.596 5.471,-1.787c1.481,-1.192 2.609,-2.781 3.386,-4.767c0.776,-1.986 1.164,-4.171 1.164,-6.554c0,-2.781 -0.686,-4.893 -2.058,-6.338c-1.372,-1.444 -3.268,-2.166 -5.688,-2.166c-2.166,-0 -3.99,0.596 -5.47,1.787c-1.481,1.192 -2.6,2.781 -3.359,4.767c-0.758,1.986 -1.137,4.171 -1.137,6.554c-0,2.781 0.677,4.893 2.031,6.338c1.354,1.444 3.241,2.166 5.66,2.166Z" style="fill:#f0f;fill-rule:nonzero;"/>
        <path d="M735.49,770.023c-3.647,-0 -6.518,-1.011 -8.612,-3.034c-2.095,-2.022 -3.142,-4.82 -3.142,-8.395c0,-2.817 0.551,-5.417 1.652,-7.8c1.102,-2.384 2.673,-4.307 4.713,-5.769c2.04,-1.463 4.505,-2.194 7.394,-2.194c2.672,0 4.784,0.623 6.337,1.869c1.553,1.246 2.609,2.844 3.169,4.794c0.56,1.95 0.695,4.008 0.406,6.175c-0.072,0.577 -0.217,0.966 -0.433,1.164c-0.217,0.199 -0.56,0.298 -1.029,0.298l-18.905,0c-0.361,3.033 0.217,5.48 1.734,7.34c1.516,1.859 3.773,2.789 6.771,2.789c1.444,0 2.78,-0.171 4.008,-0.514c1.228,-0.343 2.419,-0.93 3.575,-1.761c0.686,-0.469 1.237,-0.587 1.652,-0.352c0.415,0.235 0.632,0.623 0.65,1.165c0.018,0.541 -0.28,1.029 -0.894,1.462c-1.191,0.903 -2.6,1.589 -4.225,2.059c-1.625,0.469 -3.232,0.704 -4.821,0.704Zm1.95,-24.538c-2.058,0 -3.773,0.452 -5.145,1.354c-1.373,0.903 -2.456,2.059 -3.25,3.467c-0.795,1.408 -1.337,2.871 -1.625,4.388l17.225,-0c0.18,-1.698 0.054,-3.241 -0.38,-4.632c-0.433,-1.39 -1.2,-2.5 -2.302,-3.331c-1.101,-0.83 -2.609,-1.246 -4.523,-1.246Z" style="fill:#f0f;fill-rule:nonzero;"/>
        <path d="M761.653,770.023c-1.733,-0 -3.376,-0.208 -4.929,-0.623c-1.553,-0.415 -2.889,-1.02 -4.009,-1.815c-0.577,-0.361 -0.857,-0.812 -0.839,-1.354c0.018,-0.542 0.244,-0.948 0.677,-1.219c0.433,-0.27 0.975,-0.207 1.625,0.19c1.119,0.758 2.32,1.3 3.602,1.625c1.282,0.325 2.627,0.487 4.035,0.487c2.059,0 3.684,-0.415 4.875,-1.245c1.192,-0.831 1.788,-2.023 1.788,-3.575c-0,-1.011 -0.334,-1.851 -1.002,-2.519c-0.668,-0.668 -1.598,-1.147 -2.79,-1.436l-5.2,-1.3c-1.697,-0.433 -3.042,-1.209 -4.035,-2.329c-0.993,-1.119 -1.49,-2.491 -1.49,-4.116c0,-2.311 0.93,-4.216 2.79,-5.715c1.86,-1.499 4.342,-2.248 7.448,-2.248c1.553,0 3.051,0.235 4.496,0.704c1.444,0.47 2.636,1.102 3.575,1.896c0.577,0.47 0.848,0.966 0.812,1.49c-0.036,0.523 -0.262,0.893 -0.677,1.11c-0.415,0.217 -0.93,0.108 -1.544,-0.325c-1.841,-1.408 -4.098,-2.112 -6.771,-2.112c-2.094,-0 -3.773,0.451 -5.037,1.354c-1.264,0.903 -1.896,2.148 -1.896,3.737c0,0.939 0.289,1.761 0.867,2.465c0.578,0.704 1.48,1.201 2.708,1.489l5.2,1.355c1.77,0.433 3.178,1.173 4.225,2.22c1.047,1.048 1.571,2.384 1.571,4.009c-0,2.455 -0.93,4.369 -2.79,5.741c-1.859,1.373 -4.288,2.059 -7.285,2.059Z" style="fill:#f0f;fill-rule:nonzero;"/>
        <path d="M784.836,736.548c-1.444,-0 -2.13,-0.65 -2.058,-1.95c0.072,-1.697 0.993,-2.546 2.762,-2.546c1.445,-0 2.131,0.65 2.059,1.95c-0.072,1.697 -0.993,2.546 -2.763,2.546Zm-5.362,33.366c-1.12,0 -1.571,-0.65 -1.354,-1.95l3.683,-23.345c0.18,-1.12 0.812,-1.68 1.896,-1.68c1.119,0 1.571,0.65 1.354,1.95l-3.683,23.4c-0.181,1.084 -0.813,1.625 -1.896,1.625Z" style="fill:#f0f;fill-rule:nonzero;"/>
        <path d="M800.815,779.773c-2.058,-0 -3.972,-0.298 -5.741,-0.894c-1.77,-0.596 -3.377,-1.399 -4.821,-2.41c-0.506,-0.325 -0.713,-0.75 -0.623,-1.273c0.09,-0.524 0.352,-0.93 0.785,-1.219c0.434,-0.289 0.921,-0.253 1.463,0.108c1.336,0.939 2.681,1.661 4.035,2.167c1.355,0.506 2.898,0.758 4.632,0.758c2.383,0 4.324,-0.623 5.823,-1.868c1.498,-1.246 2.464,-3.169 2.897,-5.769l0.867,-5.525c-0.975,1.589 -2.275,2.844 -3.9,3.764c-1.625,0.921 -3.503,1.382 -5.633,1.382c-3.142,-0 -5.661,-0.975 -7.556,-2.925c-1.896,-1.95 -2.844,-4.55 -2.844,-7.8c-0,-2.673 0.505,-5.182 1.516,-7.53c1.012,-2.347 2.501,-4.252 4.469,-5.714c1.968,-1.463 4.379,-2.194 7.231,-2.194c2.059,0 3.9,0.479 5.525,1.436c1.625,0.956 2.799,2.446 3.521,4.468l0.65,-4.171c0.145,-1.083 0.777,-1.625 1.896,-1.625c1.083,0 1.517,0.65 1.3,1.95l-3.846,24.321c-1.119,7.042 -5.001,10.563 -11.646,10.563Zm0.488,-13.596c2.203,-0 4.053,-0.587 5.552,-1.76c1.499,-1.174 2.636,-2.718 3.413,-4.632c0.776,-1.914 1.164,-3.972 1.164,-6.175c0,-2.527 -0.686,-4.487 -2.058,-5.877c-1.372,-1.39 -3.286,-2.085 -5.742,-2.085c-2.203,-0 -4.053,0.587 -5.552,1.76c-1.499,1.174 -2.627,2.709 -3.385,4.604c-0.759,1.896 -1.138,3.946 -1.138,6.148c0,2.564 0.677,4.541 2.031,5.932c1.355,1.39 3.259,2.085 5.715,2.085Z" style="fill:#f0f;fill-rule:nonzero;"/>
        <path d="M822.861,769.914c-0.541,0 -0.93,-0.18 -1.164,-0.541c-0.235,-0.361 -0.298,-0.849 -0.19,-1.463l3.683,-23.291c0.145,-1.12 0.777,-1.68 1.896,-1.68c1.047,0 1.463,0.632 1.246,1.896l-0.487,3.142c1.011,-1.625 2.329,-2.889 3.954,-3.792c1.625,-0.902 3.521,-1.354 5.687,-1.354c2.925,0 5.128,0.885 6.609,2.654c1.48,1.77 1.932,4.478 1.354,8.125l-2.329,14.734c-0.181,1.047 -0.813,1.57 -1.896,1.57c-1.12,0 -1.571,-0.65 -1.354,-1.95l2.275,-14.354c0.83,-5.272 -0.939,-7.908 -5.309,-7.908c-2.889,-0 -5.173,0.876 -6.852,2.627c-1.679,1.751 -2.753,4.072 -3.223,6.96l-2.004,13c-0.18,1.084 -0.812,1.625 -1.896,1.625Z" style="fill:#f0f;fill-rule:nonzero;"/>
        <path d="M853.52,769.752c-0.723,-0 -1.318,-0.235 -1.788,-0.704c-0.469,-0.47 -0.704,-1.065 -0.704,-1.788c-0,-0.722 0.235,-1.318 0.704,-1.787c0.47,-0.47 1.065,-0.704 1.788,-0.704c0.758,-0 1.363,0.234 1.814,0.704c0.452,0.469 0.677,1.065 0.677,1.787c0,0.723 -0.225,1.318 -0.677,1.788c-0.451,0.469 -1.056,0.704 -1.814,0.704Z" style="fill:#f0f;fill-rule:nonzero;"/>
    </g>
    <g id="Logo">
        <g id="Kontur---Kreis">
            <path id="Kreis" d="M541.317,25.904c144.065,58.065 213.986,221.922 156.044,365.684c-57.942,143.762 -221.946,213.338 -366.012,155.274c-14.481,-5.837 -28.076,-16.165 -28.076,-16.165c18.428,12.138 286.975,-60.444 334.031,-193.089c51.823,-146.08 -240.052,-369.768 -95.987,-311.704Z" style="fill:#0ff;"/>
        </g>
        <path d="M225.081,65.068c91.66,-17.236 185.497,29.094 223.605,98.121c30.273,54.835 20.939,122.574 -19.178,191.812c26.218,27.199 58.39,38.362 96.726,33.948c56.922,-157.622 2.999,-233.416 -53.879,-294.618c-52.997,-57.026 -157.663,-58.12 -247.274,-29.263Z" style="fill:#e4ffff;"/>
        <path d="M225.036,65.051c47.184,-31.353 193.415,-114.461 340.807,40.523c107.646,135.665 61.581,294.314 -56.733,284.435c90.67,-158.282 5.781,-259.418 -63,-310.644c-66.367,-49.43 -147.359,-31.621 -221.074,-14.314Z" style="fill:#c8ffff;"/>
        <path d="M525.279,220.931c-32.874,38.125 -93.114,14.452 -150.824,5.073c-17.959,-2.919 -35.674,-3.55 -52.242,-1.661c-21.992,2.507 -42.568,10.321 -61.728,25.343c-35.142,27.552 -65.523,76.986 -91.146,145.695c10.875,20.228 23.052,38.305 38.165,52.505c50.54,-194.685 140.055,-181.529 245.292,-176.731c46.252,2.109 63.953,-26.054 72.483,-50.224Z" style="fill:#ecffff;"/>
        <path d="M525.328,218.954c-4.365,26.422 -14.74,50.552 -42.817,66.309c-20.52,13.272 -40.064,16.294 -84.363,17.662c-71.093,2.196 -134.029,104.335 -138.966,190.408c-17.779,-12.746 -37.076,-28.538 -52.78,-46.51c16.039,-61.307 39.976,-119.411 80.961,-151.924c31.52,-25.005 73.204,-32.988 122.066,-29.279c50.276,3.815 91.958,14.933 115.899,-46.666Z" style="fill:#c8ffff;"/>
        <path d="M162.087,262.787c57.699,-59.942 113.951,-76.123 164.778,-70.843c14.089,1.463 27.691,5.226 40.832,9.37c46.526,14.672 117.524,36.381 157.602,19.485c-24.795,31.946 -78.929,24.412 -113.887,13.915c-133.781,-40.17 -188.014,27.09 -241.972,160.701c-17.148,-34.754 -21.725,-80.308 -7.353,-132.628Z" style="fill:#d400d5;"/>
        <path d="M407.299,302.698c-64.401,55.203 -83.571,152.292 -30.21,240.044c-39.264,-6.624 -78.716,-22.616 -118.394,-49.724c-2.227,-51.26 17.454,-99.35 43.049,-133.117c32.47,-42.84 81.724,-62.972 105.555,-57.203Z" style="fill:#a0a;"/>
        <path d="M407.252,302.516c-5.357,123.516 79.231,186.185 241.912,137.145c-70.022,79.753 -167.01,119.02 -272.109,103.081c-48.726,-76.756 -50.153,-173.491 30.197,-240.226Z" style="fill:#d400d5;"/>
        <path d="M407.045,302.613c-6.925,129.729 84.593,184.603 242.133,137.106c63.143,-74.439 77.055,-186.433 42.88,-270.128c-47.226,-115.659 -301.477,-241.793 -467.082,-104.531c172.663,-103.206 341.786,-0.056 381.37,108.659c18.937,52.01 34.931,147.889 -35.928,198.472c-11.676,8.336 -25.8,13.677 -40.694,16.123c-50.709,8.33 -111.103,-17.948 -122.679,-85.701Z" style="fill:#f0f;"/>
        <path d="M224.976,65.06c32.81,-18.016 43.136,-19.662 58.806,-26.106c200.739,-82.561 369.659,63.235 395.907,106.805c-98.801,-177.603 -367.4,-178.106 -454.713,-80.699Z" style="fill:#faf;"/>
        <path d="M170.916,231.896c23.631,-67.005 70.796,-131.737 148.312,-168.361c0.196,8.841 9.845,32.353 21.132,49.757c5.973,10.457 12.473,20.372 19.629,29.627c-62.216,3.228 -128.226,27.113 -182.355,73.177c-2.54,5.058 -4.754,10.346 -6.718,15.8l-1.907,5.575c0.609,-1.876 1.243,-3.735 1.907,-5.575Z" style="fill:#f5f;"/>
        <path d="M359.989,142.919c18.623,-0.997 36.915,-0.119 54.445,2.568c17.462,22.818 36.559,38.954 55.05,50.749c18.837,12.015 37.078,19.52 55.978,24.422c0.005,0.001 0.041,0 -0,-0c-79.258,-1.695 -130.14,-31.781 -165.473,-77.739Z" style="fill:#f5f;"/>
        <path d="M359.989,142.919c35.333,45.958 86.215,76.044 165.473,77.739c-15.203,6.536 -31.212,8.64 -47.552,7.941c-17.592,-1.197 -36.829,-5.28 -55.71,-10.342c-31.859,-8.977 -62.943,-21.226 -88.852,-25.522c-2.934,-0.405 -5.6,-0.739 -7.961,-0.993c-16.577,-1.455 -32.766,-0.261 -48.38,3.068l-4.862,1.096c-30.879,6.94 -72.419,42.124 -113.796,83.067c0.599,-3.208 1.936,-9.11 3.501,-15.535c2.416,-9.917 5.377,-21.081 7.008,-25.517l0.151,-0.45c2.412,-7.432 4.596,-14.604 7.994,-21.37c54.129,-46.064 120.77,-69.954 182.986,-73.182Z" style="fill:#f0f;"/>
        <path d="M322.315,76.721l-0.25,-0.602c22.362,-9.52 46.173,-18.375 70.036,-25.835c-4.421,44.02 4.901,73.719 22.227,95.148c-15.88,-2.203 -33.544,-3.376 -54.306,-2.502c-7.288,-9.374 -14.177,-19.236 -20.207,-29.438c-6.619,-11.569 -12.334,-22.747 -17.5,-36.771Z" style="fill:#ff80ff;"/>
    </g>
</svg>
